<svg width="202" height="202" viewBox="0 0 202 202" fill="none" xmlns="http://www.w3.org/2000/svg">
<path d="M0 2C0 0.89543 0.89543 0 2 0H8C9.10457 0 10 0.89543 10 2V8C10 9.10457 9.10457 10 8 10H2C0.89543 10 0 9.10457 0 8V2ZM0 50C0 48.8954 0.89543 48 2 48H8C9.10457 48 10 48.8954 10 50V56C10 57.1046 9.10457 58 8 58H2C0.89543 58 0 57.1046 0 56V50ZM48 2C48 0.89543 48.8954 0 50 0H56C57.1046 0 58 0.89543 58 2V8C58 9.10457 57.1046 10 56 10H50C48.8954 10 48 9.10457 48 8V2ZM48 50C48 48.8954 48.8954 48 50 48H56C57.1046 48 58 48.8954 58 50V56C58 57.1046 57.1046 58 56 58H50C48.8954 58 48 57.1046 48 56V50ZM96 2C96 0.89543 96.8954 0 98 0H104C105.105 0 106 0.89543 106 2V8C106 9.10457 105.105 10 104 10H98C96.8954 10 96 9.10457 96 8V2ZM96 50C96 48.8954 96.8954 48 98 48H104C105.105 48 106 48.8954 106 50V56C106 57.1046 105.105 58 104 58H98C96.8954 58 96 57.1046 96 56V50ZM144 2C144 0.89543 144.895 0 146 0H152C153.105 0 154 0.89543 154 2V8C154 9.10457 153.105 10 152 10H146C144.895 10 144 9.10457 144 8V2ZM144 50C144 48.8954 144.895 48 146 48H152C153.105 48 154 48.8954 154 50V56C154 57.1046 153.105 58 152 58H146C144.895 58 144 57.1046 144 56V50ZM192 2C192 0.89543 192.895 0 194 0H200C201.105 0 202 0.89543 202 2V8C202 9.10457 201.105 10 200 10H194C192.895 10 192 9.10457 192 8V2ZM192 50C192 48.8954 192.895 48 194 48H200C201.105 48 202 48.8954 202 50V56C202 57.1046 201.105 58 200 58H194C192.895 58 192 57.1046 192 56V50ZM0 98C0 96.8954 0.89543 96 2 96H8C9.10457 96 10 96.8954 10 98V104C10 105.105 9.10457 106 8 106H2C0.89543 106 0 105.105 0 104V98ZM48 98C48 96.8954 48.8954 96 50 96H56C57.1046 96 58 96.8954 58 98V104C58 105.105 57.1046 106 56 106H50C48.8954 106 48 105.105 48 104V98ZM96 98C96 96.8954 96.8954 96 98 96H104C105.105 96 106 96.8954 106 98V104C106 105.105 105.105 106 104 106H98C96.8954 106 96 105.105 96 104V98ZM144 98C144 96.8954 144.895 96 146 96H152C153.105 96 154 96.8954 154 98V104C154 105.105 153.105 106 152 106H146C144.895 106 144 105.105 144 104V98ZM192 98C192 96.8954 192.895 96 194 96H200C201.105 96 202 96.8954 202 98V104C202 105.105 201.105 106 200 106H194C192.895 106 192 105.105 192 104V98ZM0 146C0 144.895 0.89543 144 2 144H8C9.10457 144 10 144.895 10 146V152C10 153.105 9.10457 154 8 154H2C0.89543 154 0 153.105 0 152V146ZM48 146C48 144.895 48.8954 144 50 144H56C57.1046 144 58 144.895 58 146V152C58 153.105 57.1046 154 56 154H50C48.8954 154 48 153.105 48 152V146ZM96 146C96 144.895 96.8954 144 98 144H104C105.105 144 106 144.895 106 146V152C106 153.105 105.105 154 104 154H98C96.8954 154 96 153.105 96 152V146ZM144 146C144 144.895 144.895 144 146 144H152C153.105 144 154 144.895 154 146V152C154 153.105 153.105 154 152 154H146C144.895 154 144 153.105 144 152V146ZM192 146C192 144.895 192.895 144 194 144H200C201.105 144 202 144.895 202 146V152C202 153.105 201.105 154 200 154H194C192.895 154 192 153.105 192 152V146ZM0 194C0 192.895 0.89543 192 2 192H8C9.10457 192 10 192.895 10 194V200C10 201.105 9.10457 202 8 202H2C0.89543 202 0 201.105 0 200V194ZM48 194C48 192.895 48.8954 192 50 192H56C57.1046 192 58 192.895 58 194V200C58 201.105 57.1046 202 56 202H50C48.8954 202 48 201.105 48 200V194ZM96 194C96 192.895 96.8954 192 98 192H104C105.105 192 106 192.895 106 194V200C106 201.105 105.105 202 104 202H98C96.8954 202 96 201.105 96 200V194ZM144 194C144 192.895 144.895 192 146 192H152C153.105 192 154 192.895 154 194V200C154 201.105 153.105 202 152 202H146C144.895 202 144 201.105 144 200V194ZM192 194C192 192.895 192.895 192 194 192H200C201.105 192 202 192.895 202 194V200C202 201.105 201.105 202 200 202H194C192.895 202 192 201.105 192 200V194Z" fill="#40964F"/>
</svg>
