<svg width="13" height="13" viewBox="0 0 13 13" fill="none" xmlns="http://www.w3.org/2000/svg">
<path d="M3.16094 1.41135C3.14329 0.610202 2.57039 0 1.64008 0C0.709768 0 0.101562 0.610202 0.101562 1.41135C0.101562 2.1959 0.691791 2.82367 1.60478 2.82367H1.62216C2.57039 2.82367 3.16094 2.1959 3.16094 1.41135Z" fill="white"/>
<path d="M2.98184 3.93896H0.262375V12.1098H2.98184V3.93896Z" fill="white"/>
<path d="M9.65814 3.74707C11.4477 3.74707 12.7893 4.91514 12.7893 7.42487L12.7892 12.1098H10.0698V7.73838C10.0698 6.64038 9.67628 5.89113 8.69182 5.89113C7.94052 5.89113 7.49301 6.39623 7.29647 6.88409C7.22456 7.05893 7.20691 7.30253 7.20691 7.54673V12.11H4.48712C4.48712 12.11 4.52297 4.70587 4.48712 3.93915H7.20691V5.09649C7.56785 4.54014 8.21429 3.74707 9.65814 3.74707Z" fill="white"/>
</svg>
