<svg width="25" height="24" viewBox="0 0 25 24" fill="none" xmlns="http://www.w3.org/2000/svg">
<path opacity="0.2" fill-rule="evenodd" clip-rule="evenodd" d="M0.5 12C0.5 5.37258 5.87258 0 12.5 0C19.1274 0 24.5 5.37258 24.5 12C24.5 18.6274 19.1274 24 12.5 24C5.87258 24 0.5 18.6274 0.5 12Z" fill="white"/>
<path fill-rule="evenodd" clip-rule="evenodd" d="M12.1406 9.75376L12.1658 10.169L11.7461 10.1181C10.2184 9.92324 8.88383 9.26227 7.75067 8.15217L7.19668 7.60136L7.05399 8.00811C6.75181 8.91483 6.94487 9.8724 7.5744 10.5164C7.91015 10.8723 7.83461 10.9232 7.25544 10.7113C7.05399 10.6435 6.87772 10.5927 6.86093 10.6181C6.80218 10.6774 7.00363 11.4486 7.16311 11.7536C7.38134 12.1773 7.82621 12.5926 8.31305 12.8383L8.72434 13.0332L8.23751 13.0417C7.76746 13.0417 7.75067 13.0502 7.80103 13.2281C7.96891 13.7789 8.63201 14.3636 9.37066 14.6179L9.89108 14.7958L9.43781 15.067C8.76631 15.4568 7.9773 15.6771 7.18829 15.6941C6.81057 15.7025 6.5 15.7364 6.5 15.7618C6.5 15.8466 7.52404 16.3211 8.11999 16.5076C9.90786 17.0584 12.0315 16.8211 13.6263 15.8805C14.7595 15.211 15.8926 13.8806 16.4214 12.5926C16.7068 11.9062 16.9922 10.652 16.9922 10.0504C16.9922 9.66055 17.0174 9.6097 17.4874 9.14363C17.7644 8.87246 18.0246 8.57587 18.075 8.49113C18.1589 8.33013 18.1505 8.33013 17.7224 8.47419C17.009 8.72841 16.9083 8.69451 17.2608 8.31318C17.521 8.04201 17.8316 7.55052 17.8316 7.40646C17.8316 7.38104 17.7057 7.42341 17.563 7.49967C17.4119 7.58441 17.0761 7.71152 16.8243 7.78779L16.3711 7.93185L15.9598 7.65221C15.7331 7.49967 15.4142 7.33019 15.2463 7.27935C14.8182 7.16071 14.1635 7.17766 13.7774 7.31324C12.7282 7.69458 12.0651 8.67756 12.1406 9.75376Z" fill="white"/>
</svg>
